<svg xmlns="http://www.w3.org/2000/svg" viewBox="0 0 100 100" fill="none">
  <defs>
    <filter id="neonGlow" x="-20%" y="-20%" width="140%" height="140%">
      <feGaussianBlur stdDeviation="3" result="blur" />
      <feMerge>
        <feMergeNode in="blur" />
        <feMergeNode in="SourceGraphic" />
      </feMerge>
    </filter>
  </defs>
  
  {/* Microphone */}
  <g filter="url(#neonGlow)">
    <rect x="58" y="15" width="8" height="16" rx="4" fill="#db2777" />
    <path d="M53 25C53 31 57 34 62 34C67 34 71 31 71 25" stroke="#db2777" strokeWidth="2.5" strokeLinecap="round" />
    <path d="M62 34V39" stroke="#db2777" strokeWidth="2.5" />
  </g>

  {/* Soundwave Line across the center */}
  <path
    d="M10 50 Q 20 30, 24 50 T 34 50 T 40 70 T 48 35 T 56 50 T 66 50 T 76 40 T 90 50"
    stroke="#db2777"
    strokeWidth="3.5"
    strokeLinecap="round"
    strokeLinejoin="round"
    filter="url(#neonGlow)"
  />

  {/* Wi-Fi/Signal icon */}
  <g filter="url(#neonGlow)" stroke="#3b82f6" strokeWidth="2.5" strokeLinecap="round" fill="none">
    <circle cx="68" cy="74" r="1" fill="#3b82f6" />
    <path d="M63 69 A 7 7 0 0 1 73 69" />
    <path d="M58 64 A 14 14 0 0 1 78 64" />
  </g>
</svg>